# Blender v2.62 (sub 0) OBJ File: ''
# www.blender.org
mtllib test2.mtl
o Cube
v 1.000000 -1.000000 -1.000000
v 1.000000 -1.000000 1.000000
v -1.000000 -1.000000 1.000000
v -1.000000 -1.000000 -1.000000
v 1.000000 1.000000 -0.999999
v 0.999999 1.000000 1.000001
v -1.000000 1.000000 1.000000
v -1.000000 1.000000 -1.000000
vt 0.146884 0.353763
vt 0.362454 0.380526
vt 0.370850 0.874255
vt 0.162909 0.875021
vt 0.633771 0.099161
vt 0.625375 0.372660
vt 0.516616 0.367961
vt 0.513568 0.098395
vt 0.842813 0.345131
vt 0.858838 0.925379
vt 0.639453 0.918281
vt 0.631057 0.416686
vt 0.415486 0.878954
vt 0.388017 0.377360
vt 0.615031 0.392324
vt 0.611983 0.870322
vt 0.386109 0.399422
vt 0.271628 0.360862
vt 0.253695 0.087363
vt 0.391065 0.098394
vt 0.397553 0.099161
vt 0.513942 0.114125
vt 0.514709 0.375826
vt 0.404042 0.380526
vn 0.577349 -0.577349 -0.577349
vn 0.577349 -0.577349 0.577349
vn -0.577349 -0.577349 0.577349
vn -0.577349 -0.577349 -0.577349
vn 0.577349 0.577349 -0.577349
vn -0.577349 0.577349 -0.577349
vn -0.577349 0.577349 0.577349
vn 0.577349 0.577349 0.577349
usemtl Material_SignsNeon0139_1_M.jpg
s 1
f 1/1/1 2/2/2 3/3/3 4/4/4
f 5/5/5 8/6/6 7/7/7 6/8/8
f 1/9/1 5/10/5 6/11/8 2/12/2
f 2/13/2 6/14/8 7/15/7 3/16/3
f 3/17/3 7/18/7 8/19/6 4/20/4
f 5/21/5 1/22/1 4/23/4 8/24/6
